<?xml version="1.0" standalone="no"?>
<!DOCTYPE svg PUBLIC "-//W3C//DTD SVG 20010904//EN"
 "http://www.w3.org/TR/2001/REC-SVG-20010904/DTD/svg10.dtd">
<svg version="1.0" xmlns="http://www.w3.org/2000/svg"
 width="218.000000pt" height="45.000000pt" viewBox="0 0 218.000000 45.000000"
 preserveAspectRatio="xMidYMid meet">

<g transform="translate(0.000000,45.000000) scale(0.100000,-0.100000)"
fill="#ffff" stroke="none">
<path d="M1440 435 c0 -11 -12 -15 -45 -15 -38 0 -45 -3 -45 -20 0 -11 7 -20
15 -20 19 0 19 -9 0 -34 -23 -31 -18 -72 13 -107 50 -56 165 -51 212 9 26 32
25 73 -1 106 l-20 26 20 0 c14 0 21 6 21 20 0 17 -7 20 -45 20 -33 0 -45 4
-45 15 0 11 -11 15 -40 15 -29 0 -40 -4 -40 -15z m84 -94 c25 -28 17 -72 -16
-91 -25 -13 -31 -13 -55 0 -54 30 -34 110 27 110 15 0 35 -9 44 -19z"/>
<path d="M250 370 c0 -68 -1 -70 -25 -70 -18 0 -25 -5 -25 -20 0 -15 7 -20 25
-20 25 0 25 -1 25 -81 0 -93 -8 -97 -55 -30 -29 41 -30 48 -33 162 l-4 119
-34 0 -34 0 0 -116 c0 -123 -5 -140 -53 -191 -25 -27 -28 -35 -17 -48 19 -23
35 -18 73 25 l36 39 20 -27 c28 -40 66 -59 86 -42 13 11 15 8 15 -19 0 -28 3
-31 30 -31 l30 0 0 210 0 210 -30 0 -30 0 0 -70z"/>
<path d="M340 230 l0 -210 30 0 30 0 0 210 0 210 -30 0 -30 0 0 -210z"/>
<path d="M770 420 c0 -15 -7 -20 -25 -20 -16 0 -25 6 -25 15 0 13 -20 15 -120
15 l-120 0 0 -105 0 -105 120 0 c113 0 120 1 120 20 0 15 7 20 25 20 22 0 25
-4 25 -39 l0 -40 -32 10 c-75 21 -167 5 -218 -37 -90 -76 50 -176 202 -145
100 21 141 82 93 139 l-27 32 26 0 26 0 0 130 0 130 -35 0 c-28 0 -35 -4 -35
-20z m-120 -100 l0 -60 -55 0 -55 0 0 60 0 60 55 0 55 0 0 -60z m120 10 c0
-15 -7 -20 -25 -20 -18 0 -25 5 -25 20 0 15 7 20 25 20 18 0 25 -5 25 -20z
m-26 -199 c41 -45 -6 -84 -92 -78 -36 3 -60 10 -73 24 -39 39 1 71 92 72 43 1
60 -3 73 -18z"/>
<path d="M1118 278 l-3 -163 -67 -3 -68 -3 0 136 0 135 50 0 c47 0 50 2 50 25
0 25 -1 25 -80 25 l-80 0 0 -186 0 -187 100 5 c100 5 100 5 100 -19 0 -19 5
-23 30 -23 l29 0 3 117 c3 103 5 118 21 121 15 3 17 -8 17 -117 l0 -121 35 0
35 0 0 210 0 210 -35 0 -35 0 0 -70 c0 -63 -2 -70 -20 -70 -18 0 -20 7 -20 70
l0 70 -30 0 -30 0 -2 -162z"/>
<path d="M1650 320 l0 -120 35 0 35 0 0 55 c0 48 2 55 20 55 15 0 20 7 20 25
0 18 -5 25 -20 25 -17 0 -20 7 -20 40 0 39 -1 40 -35 40 l-35 0 0 -120z"/>
<path d="M1830 405 l0 -25 125 0 125 0 0 -139 c0 -153 -3 -171 -31 -171 -17 0
-19 8 -19 95 l0 95 -30 0 -30 0 0 -95 c0 -95 0 -95 -25 -95 -25 0 -25 0 -25
95 l0 95 -30 0 -30 0 0 -95 c0 -95 0 -95 -25 -95 -18 0 -25 -5 -25 -20 0 -19
7 -20 185 -20 178 0 185 1 185 20 0 12 -7 20 -17 20 -17 0 -18 14 -15 180 l4
180 -161 0 -161 0 0 -25z"/>
<path d="M1377 174 c-4 -4 -7 -16 -7 -26 0 -17 11 -18 140 -18 l140 0 0 -55 0
-55 35 0 36 0 -3 77 -3 78 -166 3 c-91 1 -168 -1 -172 -4z"/>
</g>
</svg>
