<?xml version="1.0" standalone="no"?>
<!DOCTYPE svg PUBLIC "-//W3C//DTD SVG 20010904//EN"
 "http://www.w3.org/TR/2001/REC-SVG-20010904/DTD/svg10.dtd">
<svg version="1.0" xmlns="http://www.w3.org/2000/svg"
 width="215.000000pt" height="104.000000pt" viewBox="0 0 215.000000 104.000000"
 preserveAspectRatio="xMidYMid meet">

<g transform="translate(0.000000,104.000000) scale(0.100000,-0.100000)"
fill="#ffff" stroke="none">
<path d="M0 765 l0 -275 165 0 165 0 0 -165 0 -165 -165 0 -165 0 0 -80 0 -80
260 0 260 0 0 320 0 320 -160 0 -160 0 0 125 0 125 160 0 160 0 0 75 0 75
-260 0 -260 0 0 -275z"/>
<path d="M640 520 l0 -520 100 0 100 0 0 445 0 446 58 -3 57 -3 3 -442 2 -443
95 0 95 0 2 442 3 443 58 3 57 3 0 -446 0 -445 100 0 100 0 0 520 0 520 -415
0 -415 0 0 -520z"/>
<path d="M1590 520 l0 -520 280 0 280 0 0 520 0 520 -100 0 -100 0 0 -440 0
-440 -85 0 -85 0 0 440 0 440 -95 0 -95 0 0 -520z"/>
</g>
</svg>
